<?xml version="1.0" encoding="UTF-8"?>
<!DOCTYPE svg PUBLIC "-//W3C//DTD SVG 1.1//EN" "http://www.w3.org/Graphics/SVG/1.1/DTD/svg11.dtd">
<!-- Creator: CorelDRAW 2019 (64-Bit) -->
<svg xmlns="http://www.w3.org/2000/svg" xml:space="preserve" width="2.07419in" height="0.663453in" version="1.1" style="shape-rendering:geometricPrecision; text-rendering:geometricPrecision; image-rendering:optimizeQuality; fill-rule:evenodd; clip-rule:evenodd"
viewBox="0 0 2074.19 663.45"
 xmlns:xlink="http://www.w3.org/1999/xlink"
 xmlns:xodm="http://www.corel.com/coreldraw/odm/2003">
 <defs>
  <style type="text/css">
   <![CDATA[
    .fil0 {fill:black;fill-rule:nonzero}
   ]]>
  </style>
 </defs>
 <g id="Layer_x0020_1">
  <metadata id="CorelCorpID_0Corel-Layer"/>
  <g id="_2639148980944">
   <path class="fil0" d="M2024.84 44.74l0 -17.38 13.41 0c1.65,0 3.11,0.37 4.35,1.09 1.26,0.71 2.22,1.72 2.89,3.04 0.68,1.31 1.02,2.83 1.02,4.56 -0.04,1.72 -0.38,3.24 -1.06,4.55 -0.68,1.32 -1.64,2.35 -2.9,3.06 -1.24,0.73 -2.67,1.07 -4.31,1.07l-13.41 0zm19.88 2.5c1.93,-1.06 3.45,-2.55 4.51,-4.48 1.06,-1.93 1.59,-4.17 1.59,-6.7 0,-2.54 -0.53,-4.76 -1.59,-6.71 -1.06,-1.94 -2.56,-3.43 -4.5,-4.47 -1.93,-1.07 -4.18,-1.59 -6.72,-1.59l-13.17 0 -1.67 0 -2.71 0 0 44.21 4.38 0 0 -18.7 13.17 0 0.02 0 9.42 18.7 5.24 0 -10.24 -19.41c0.78,-0.25 1.57,-0.48 2.27,-0.85z"/>
   <path class="fil0" d="M2034.47 81.62c-19.44,0 -35.25,-15.8 -35.25,-35.25 0,-19.43 15.81,-35.25 35.25,-35.25 19.43,0 35.24,15.82 35.24,35.25 0,19.44 -15.81,35.25 -35.24,35.25zm0 -74.96c-21.91,0 -39.73,17.83 -39.73,39.72 0,21.91 17.82,39.73 39.73,39.73 21.91,0 39.72,-17.82 39.72,-39.73 0,-21.89 -17.8,-39.72 -39.72,-39.72z"/>
   <path class="fil0" d="M780.77 385.92c-50.03,0 -83.81,-37.53 -83.81,-92.57 0,-55.04 33.78,-92.57 83.81,-92.57 49.42,0 83.81,37.53 83.81,92.57 0,55.04 -34.39,92.57 -83.81,92.57zm0 -265.2c-108.2,0 -180.76,68.17 -180.76,171.37 0,102.57 72.57,172.02 180.76,172.02 107.58,0 180.15,-69.44 180.15,-172.02 0,-103.2 -72.57,-171.37 -180.15,-171.37z"/>
   <path class="fil0" d="M556.94 123.85c-31.46,0 -59.92,5.75 -84.39,16.52 -59.83,26.11 -96.37,81.69 -96.37,154.91l0 168.84 96.37 0 0 -161.98c0,-0.7 0,-1.37 0.06,-1.99 0.83,-49.42 34.15,-83.28 88.99,-86.09 0.06,0 0.13,0.07 0.2,0 6.99,-0.35 14.4,-0.22 22.07,0.46l0 -89.1c-3.7,-0.5 -7.54,-0.83 -11.37,-1.05 -5.08,-0.39 -10.29,-0.52 -15.56,-0.52z"/>
   <path class="fil0" d="M1072.95 215.18c0,-17.52 16.25,-25.03 38.79,-25.03 28.14,0 65.67,11.89 102.57,32.52l33.15 -65.67c-37.53,-23.76 -85.07,-37.51 -131.36,-37.51 -73.18,0 -132.59,35.65 -132.59,105.05 0,118.23 174.51,89.46 174.51,143.25 0,18.14 -18.14,26.27 -42.52,26.27 -36.9,0 -81.94,-15.01 -116.97,-41.91l-31.28 65.05c38.18,30.64 91.33,46.93 145.74,46.93 76.32,0 137,-36.31 137,-105.11 0.61,-118.83 -177.02,-93.2 -177.02,-143.84z"/>
   <path class="fil0" d="M1373.58 264.59c7.51,-44.43 36.28,-73.19 78.81,-73.19 44.41,0 73.18,28.77 74.44,73.19l-153.25 0zm78.19 -143.86c-102.57,0 -173.26,68.8 -173.26,172.63 0,101.94 68.18,170.76 175.75,170.76 60.68,0 110.1,-21.91 143.87,-59.42l-50.67 -51.29c-23.15,23.13 -53.17,35.65 -85.07,35.65 -43.15,0 -75.69,-25.02 -86.95,-67.55l241.44 0c8.13,-122.59 -46.91,-200.77 -165.12,-200.77z"/>
   <polygon class="fil0" points="1852.9,257.71 1976.12,128.24 1866.65,128.24 1743.43,255.21 1743.43,0 1647.12,0 1647.12,464.11 1743.43,464.11 1743.43,372.8 1786.6,327.14 1867.91,464.11 1981.74,464.11 "/>
   <path class="fil0" d="M180.76 256.45l-81.94 0 0 -148.24 81.94 0c55.04,0 86.31,24.4 86.31,73.2 0,50.03 -31.26,75.04 -86.31,75.04zm5.01 -230.16l-185.78 0 0 437.85 98.82 0 0 -125.11 86.95 0c111.33,0 175.12,-58.81 175.12,-160.76 0,-96.95 -63.79,-151.98 -175.12,-151.98z"/>
   <path class="fil0" d="M22.95 633.38l18.17 -41.37 18.4 41.37 -36.57 0zm13.63 -51.96l-36.57 81.56 9.91 0 9.07 -20.62 44.51 0 9.09 20.62 10.12 0 -36.44 -81.56 -9.69 0z"/>
   <path class="fil0" d="M265.89 628.25l-21.66 0 0 -37.86 21.66 0c14.81,0 23.18,6.3 23.18,18.67 0,12.66 -8.37,19.19 -23.18,19.19zm32.16 -19.44c0,-17.38 -11.77,-27.38 -32.16,-27.38l-31 0 0 81.56 9.35 0 0 -25.74 21.66 0c1.87,0 3.73,-0.11 5.47,-0.23l16.9 25.97 10.59 0 -19.11 -27.74c11.77,-3.84 18.3,-12.9 18.3,-26.44z"/>
   <path class="fil0" d="M493.43 654.24c-18.41,0 -33.2,-14.32 -33.2,-32.14 0,-17.96 14.8,-32.17 33.2,-32.17 8.98,0 17.82,3.87 24.1,10.26l5.61 -7.09c-7.8,-7.36 -18.63,-11.91 -29.83,-11.91 -23.64,0 -42.52,18.04 -42.52,40.91 0,23.06 18.63,41.35 42.17,41.35 11.31,0 22.25,-5.03 30.29,-12.6l-5.72 -6.38c-6.4,6.02 -15.13,9.77 -24.1,9.77z"/>
   <polygon class="fil0" points="737.88,618.24 688.73,618.24 688.73,581.42 679.4,581.42 679.4,662.98 688.73,662.98 688.73,627.08 737.88,627.08 737.88,662.98 747.21,662.98 747.21,581.42 737.88,581.42 "/>
   <polygon class="fil0" points="911.25,662.98 920.57,662.98 920.57,581.42 911.25,581.42 "/>
   <polygon class="fil0" points="1073.65,590.38 1100.2,590.38 1100.2,662.98 1109.53,662.98 1109.53,590.38 1136.21,590.38 1136.21,581.42 1073.65,581.42 "/>
   <polygon class="fil0" points="1298.46,626.16 1339.58,626.16 1339.58,617.18 1298.46,617.18 1298.46,590.38 1344.47,590.38 1344.47,581.42 1289.13,581.42 1289.13,662.98 1345.99,662.98 1345.99,654.12 1298.46,654.12 "/>
   <path class="fil0" d="M1539.31 654.24c-18.4,0 -33.2,-14.32 -33.2,-32.14 0,-17.96 14.8,-32.17 33.2,-32.17 8.96,0 17.82,3.87 24.11,10.26l5.61 -7.09c-7.8,-7.36 -18.65,-11.91 -29.83,-11.91 -23.66,0 -42.54,18.04 -42.54,40.91 0,23.06 18.65,41.35 42.19,41.35 11.3,0 22.26,-5.03 30.29,-12.6l-5.72 -6.38c-6.41,6.02 -15.15,9.77 -24.11,9.77z"/>
   <polygon class="fil0" points="1714.2,590.38 1740.76,590.38 1740.76,662.98 1750.08,662.98 1750.08,590.38 1776.77,590.38 1776.77,581.42 1714.2,581.42 "/>
   <path class="fil0" d="M1935.96 601.35c0,-6.86 6.88,-10.83 17.36,-10.83 6.52,0 15.15,2 22.49,6.87l3.97 -8.74c-6.76,-4.55 -16.44,-7.59 -25.87,-7.59 -16.9,0 -28.19,8.28 -28.19,21.11 0,29.23 45.91,17.81 45.8,39.25 0,7.8 -7.34,12.6 -19.13,12.6 -9.19,0 -19.56,-4.21 -27.13,-11.56l-4.18 8.39c7.67,7.34 19.33,12.48 31.19,12.48 17.48,0 29.48,-8.72 29.48,-22.37 0.12,-29.61 -45.78,-18.61 -45.78,-39.61z"/>
  </g>
 </g>
</svg>
